HIERARCHY
ROOT hip
{
  OFFSET 0 0 0
  CHANNELS 6 Xposition Yposition Zposition Zrotation Yrotation Xrotation
  JOINT abdomen
  {
    OFFSET 0 20.6881 -0.73152
    CHANNELS 3 Zrotation Xrotation Yrotation
    JOINT chest
    {
      OFFSET 0 11.7043 -0.48768
      CHANNELS 3 Zrotation Xrotation Yrotation
      JOINT neck
      {
        OFFSET 0 22.1894 -2.19456
        CHANNELS 3 Zrotation Xrotation Yrotation
        JOINT head
        {
          OFFSET -0.24384 7.07133 1.2192
          CHANNELS 3 Zrotation Xrotation Yrotation
          JOINT leftEye
          {
            OFFSET 4.14528 8.04674 8.04672
            CHANNELS 3 Zrotation Xrotation Yrotation
            End Site
            {
              OFFSET 1 0 0
            }
          }
          JOINT rightEye
          {
            OFFSET -3.6576 8.04674 8.04672
            CHANNELS 3 Zrotation Xrotation Yrotation
            End Site
            {
              OFFSET 1 0 0
            }
          }
        }
      }
      JOINT rCollar
      {
        OFFSET -2.68224 19.2634 -4.8768
        CHANNELS 3 Zrotation Xrotation Yrotation
        JOINT rShldr
        {
          OFFSET -8.77824 -1.95073 1.46304
          CHANNELS 3 Zrotation Xrotation Yrotation
          JOINT rForeArm
          {
            OFFSET -28.1742 -1.7115 0.48768
            CHANNELS 3 Zrotation Xrotation Yrotation
            JOINT rHand
            {
              OFFSET -22.5879 0.773209 7.07136
              CHANNELS 3 Zrotation Xrotation Yrotation
              JOINT rThumb1
              {
                OFFSET -1.2192 -0.487915 3.41376
                CHANNELS 3 Zrotation Xrotation Yrotation
                JOINT rThumb2
                {
                  OFFSET -3.37035 -0.52449 3.41376
                  CHANNELS 3 Zrotation Xrotation Yrotation
                  End Site
                  {
                    OFFSET -1.78271 -1.18214 1.43049
                  }
                }
              }
              JOINT rIndex1
              {
                OFFSET -7.75947 0.938293 5.60832
                CHANNELS 3 Zrotation Xrotation Yrotation
                JOINT rIndex2
                {
                  OFFSET -2.54057 -0.884171 1.56538
                  CHANNELS 3 Zrotation Xrotation Yrotation
                  End Site
                  {
                    OFFSET -1.62519 -0.234802 1.16502
                  }
                }
              }
              JOINT rMid1
              {
                OFFSET -8.24714 1.18213 3.41376
                CHANNELS 3 Zrotation Xrotation Yrotation
                JOINT rMid2
                {
                  OFFSET -3.10165 -0.590103 1.0647
                  CHANNELS 3 Zrotation Xrotation Yrotation
                  End Site
                  {
                    OFFSET -2.48547 -0.328903 0.83742
                  }
                }
              }
              JOINT rRing1
              {
                OFFSET -8.82822 0.546677 1.51678
                CHANNELS 3 Zrotation Xrotation Yrotation
                JOINT rRing2
                {
                  OFFSET -2.60934 -0.819778 -0.0198488
                  CHANNELS 3 Zrotation Xrotation Yrotation
                  End Site
                  {
                    OFFSET -2.33842 -0.294052 0.168128
                  }
                }
              }
              JOINT rPinky1
              {
                OFFSET -8.27202 -0.0477905 -0.4584
                CHANNELS 3 Zrotation Xrotation Yrotation
                JOINT rPinky2
                {
                  OFFSET -1.82734 -0.647385 -0.700984
                  CHANNELS 3 Zrotation Xrotation Yrotation
                  End Site
                  {
                    OFFSET -1.69225 -0.51767 -0.607171
                  }
                }
              }
            }
          }
        }
      }
      JOINT lCollar
      {
        OFFSET 2.68224 19.2634 -4.8768
        CHANNELS 3 Zrotation Xrotation Yrotation
        JOINT lShldr
        {
          OFFSET 8.77824 -1.95073 1.46304
          CHANNELS 3 Zrotation Xrotation Yrotation
          JOINT lForeArm
          {
            OFFSET 28.1742 -1.7115 0.48768
            CHANNELS 3 Zrotation Xrotation Yrotation
            JOINT lHand
            {
              OFFSET 22.5879 0.773209 7.07136
              CHANNELS 3 Zrotation Xrotation Yrotation
              JOINT lThumb1
              {
                OFFSET 1.2192 -0.487915 3.41376
                CHANNELS 3 Zrotation Xrotation Yrotation
                JOINT lThumb2
                {
                  OFFSET 3.37035 -0.52449 3.41376
                  CHANNELS 3 Zrotation Xrotation Yrotation
                  End Site
                  {
                    OFFSET 1.78271 -1.18214 1.43049
                  }
                }
              }
              JOINT lIndex1
              {
                OFFSET 7.75947 0.938293 5.60832
                CHANNELS 3 Zrotation Xrotation Yrotation
                JOINT lIndex2
                {
                  OFFSET 2.54057 -0.884171 1.56538
                  CHANNELS 3 Zrotation Xrotation Yrotation
                  End Site
                  {
                    OFFSET 1.62519 -0.234802 1.16502
                  }
                }
              }
              JOINT lMid1
              {
                OFFSET 8.24714 1.18213 3.41376
                CHANNELS 3 Zrotation Xrotation Yrotation
                JOINT lMid2
                {
                  OFFSET 3.10165 -0.590103 1.0647
                  CHANNELS 3 Zrotation Xrotation Yrotation
                  End Site
                  {
                    OFFSET 2.48547 -0.328903 0.83742
                  }
                }
              }
              JOINT lRing1
              {
                OFFSET 8.82822 0.546677 1.51678
                CHANNELS 3 Zrotation Xrotation Yrotation
                JOINT lRing2
                {
                  OFFSET 2.60934 -0.819778 -0.0198488
                  CHANNELS 3 Zrotation Xrotation Yrotation
                  End Site
                  {
                    OFFSET 2.33842 -0.294052 0.168128
                  }
                }
              }
              JOINT lPinky1
              {
                OFFSET 8.27202 -0.0477905 -0.4584
                CHANNELS 3 Zrotation Xrotation Yrotation
                JOINT lPinky2
                {
                  OFFSET 1.82734 -0.647385 -0.700984
                  CHANNELS 3 Zrotation Xrotation Yrotation
                  End Site
                  {
                    OFFSET 1.69225 -0.51767 -0.607171
                  }
                }
              }
            }
          }
        }
      }
    }
  }
  JOINT rButtock
  {
    OFFSET -8.77824 4.35084 1.2192
    CHANNELS 3 Zrotation Xrotation Yrotation
    JOINT rThigh
    {
      OFFSET 0 -1.70687 -2.19456
      CHANNELS 3 Zrotation Xrotation Yrotation
      JOINT rShin
      {
        OFFSET 0 -36.8199 0.73152
        CHANNELS 3 Zrotation Xrotation Yrotation
        JOINT rFoot
        {
          OFFSET 0.73152 -45.1104 -5.12064
          CHANNELS 3 Zrotation Xrotation Yrotation
          End Site
          {
            OFFSET -1.1221 -3.69964 12.103
          }
        }
      }
    }
  }
  JOINT lButtock
  {
    OFFSET 8.77824 4.35084 1.2192
    CHANNELS 3 Zrotation Xrotation Yrotation
    JOINT lThigh
    {
      OFFSET 0 -1.70687 -2.19456
      CHANNELS 3 Zrotation Xrotation Yrotation
      JOINT lShin
      {
        OFFSET 0 -36.8199 0.73152
        CHANNELS 3 Zrotation Xrotation Yrotation
        JOINT lFoot
        {
          OFFSET -0.73152 -45.1104 -5.12064
          CHANNELS 3 Zrotation Xrotation Yrotation
          End Site
          {
            OFFSET 1.1221 -3.69964 12.103
          }
        }
      }
    }
  }
}
MOTION
Frames:	5
Frame Time:	0.00833333
14.9934 85.1932 -185.688 0.0 0.0 0.0 0.572855 -0.00324244 0.0163889 0.158162 -0.00505489 0.0274046 -1.65325e-14 -7.95139e-16 6.21203e-18 -4.95906e-14 3.18055e-15 -3.41661e-17 -0.0 0.0 0.0 -0.0 0.0 0.0 -8.15167e-15 1.70831e-17 2.48481e-16 -1.73425e-13 2.60905e-16 -3.97569e-16 -2.98778e-12 9.07452e-13 9.54166e-15 -3.42537e-11 -8.34821e-13 -1.01778e-13 -8.07942e-11 1.59063e-13 -1.7175e-13 -1.3954e-10 2.76708e-13 -2.8784e-13 -8.07924e-11 1.59823e-13 -1.81292e-13 7.73091 5.47488 0.417314 -8.07958e-11 1.58531e-13 -1.65389e-13 2.90554 0.965183 0.102902 -8.07942e-11 1.58332e-13 -1.62208e-13 10.2786 0.731801 0.0259123 -8.08064e-11 1.64196e-13 -1.49486e-13 2.22167 -0.733487 -0.20892 -8.348e-15 1.66948e-17 -2.48481e-16 -1.74545e-13 6.4605e-16 -1.59028e-15 -2.99817e-12 -8.81212e-13 5.08889e-14 -3.42556e-11 9.7074e-13 -1.01778e-13 -8.08108e-11 1.90857e-13 -1.49486e-13 -1.39547e-10 3.30778e-13 -2.63191e-13 -8.08147e-11 1.92026e-13 -1.39944e-13 -7.73091 5.47488 -0.417314 -8.08087e-11 1.90038e-13 -1.55847e-13 -2.90554 0.965183 -0.102902 -8.08105e-11 1.90336e-13 -1.56642e-13 -10.2786 0.731801 -0.0259123 -8.08014e-11 1.96797e-13 -1.68569e-13 -2.22167 -0.733487 0.20892 -2.03217e-16 0.0 -3.88251e-19 0.920559 -4.54481 -0.0776248 -0.00189587 2.68067 -0.00764111 -0.49001 1.86452 0.0936684 2.03217e-16 0.0 3.88251e-19 -0.0476077 -2.3355 0.0218129 0.00803065 -1.32108 0.0687397 0.481157 3.65687 -0.128841
13.7449 82.3802 -189.63 -4.858 -1.6138 16.1179 1.93473 -5.2647 1.27986 -0.555664 -0.12189 0.321901 -7.93592 12.4226 -3.3518 20.4491 -11.1234 -4.76329 -0.0 0.0 0.0 -0.0 0.0 0.0 2.50332e-14 3.04637e-14 -1.62763e-14 23.1722 10.1375 0.140524 -3.29375 -1.34968 5.29253 0.132813 8.09912 1.09761 3.78663e-10 1.7277e-10 -3.85572e-10 6.4475e-10 3.13255e-10 -6.75929e-10 3.78667e-10 1.72773e-10 -3.85584e-10 7.73091 5.47488 0.417314 3.78661e-10 1.72769e-10 -3.85565e-10 2.90554 0.965183 0.102902 3.78663e-10 1.72772e-10 -3.85564e-10 10.2786 0.731801 0.0259123 3.78654e-10 1.72777e-10 -3.85555e-10 2.22167 -0.733487 -0.20892 2.48984e-14 3.04638e-14 -1.66451e-14 -22.3714 11.7338 1.8063 4.38838 -2.02859 -6.81622 -0.121136 -7.73357 1.05146 -4.70247e-10 -2.69609e-10 4.68155e-10 -8.21191e-10 -4.7456e-10 8.00599e-10 -4.70249e-10 -2.69609e-10 4.68164e-10 -7.73091 5.47488 -0.417314 -4.70245e-10 -2.69609e-10 4.68151e-10 -2.90554 0.965183 -0.102902 -4.70245e-10 -2.6961e-10 4.68149e-10 -10.2786 0.731801 -0.0259123 -4.70238e-10 -2.69604e-10 4.68139e-10 -2.22167 -0.733487 0.20892 -2.03217e-16 0.0 -3.88251e-19 2.02478 -10.153 -0.48471 -0.00059134 9.60961 0.0869567 -0.196106 -3.74599 2.27278 2.03217e-16 0.0 3.88251e-19 1.86304 -8.78809 2.03979 -0.00924989 7.50503 -0.0793021 0.514223 -2.06195 0.483324
13.7273 82.3788 -189.632 -4.8224 -1.6396 16.1253 3.63322 -10.8186 2.65176 -1.30925 -0.244109 0.633264 -14.5948 25.406 -7.45966 39.9139 -22.6194 -10.4252 -0.0 0.0 0.0 -0.0 0.0 0.0 6.01293e-14 6.65007e-14 -3.4309e-14 47.61 20.8536 0.305773 -6.50576 -2.73802 10.8967 -0.0775646 16.6511 2.33332 9.27613e-10 3.22887e-10 -7.97122e-10 1.58299e-09 5.8996e-10 -1.39883e-09 9.27621e-10 3.22892e-10 -7.97136e-10 7.73091 5.47488 0.417314 9.27612e-10 3.22886e-10 -7.97113e-10 2.90554 0.965183 0.102902 9.27614e-10 3.22892e-10 -7.97116e-10 10.2786 0.731801 0.0259123 9.27607e-10 3.22896e-10 -7.97111e-10 2.22167 -0.733487 -0.20892 6.00587e-14 6.65014e-14 -3.45388e-14 -46.8949 24.097 3.98374 8.50657 -4.07737 -14.049 0.0705539 -15.8998 2.22858 -8.91369e-10 -5.48602e-10 1.016e-09 -1.55909e-09 -9.66792e-10 1.73823e-09 -8.9137e-10 -5.48602e-10 1.01601e-09 -7.73091 5.47488 -0.417314 -8.91367e-10 -5.48602e-10 1.016e-09 -2.90554 0.965183 -0.102902 -8.91365e-10 -5.48603e-10 1.01599e-09 -10.2786 0.731801 -0.0259123 -8.91361e-10 -5.48598e-10 1.01598e-09 -2.22167 -0.733487 0.20892 -2.03217e-16 0.0 -3.88251e-19 3.09976 -16.0785 -0.95089 -0.0251411 16.9307 0.192633 0.587513 -9.6538 4.64729 2.03217e-16 0.0 3.88251e-19 4.39452 -15.5779 4.28176 0.0237969 16.8344 -0.244797 0.682806 -8.10574 1.14019
13.699 82.377 -189.631 -4.818 -1.6537 16.1342 5.37724 -15.7561 3.93882 -1.97971 -0.35552 0.910908 -18.5628 36.6923 -12.2802 55.0059 -32.361 -16.6676 -0.0 0.0 0.0 -0.0 0.0 0.0 9.14028e-14 9.13568e-14 -4.93258e-14 69.3472 30.4117 0.481201 -9.14238 -3.91106 15.9112 -0.608536 24.2599 3.57616 1.29758e-09 5.17991e-10 -1.15637e-09 2.21333e-09 9.39211e-10 -2.02721e-09 1.29759e-09 5.17998e-10 -1.15639e-09 7.73091 5.47488 0.417314 1.29758e-09 5.17991e-10 -1.15636e-09 2.90554 0.965183 0.102902 1.29758e-09 5.17999e-10 -1.15637e-09 10.2786 0.731801 0.0259123 1.29757e-09 5.18002e-10 -1.15637e-09 2.22167 -0.733487 -0.20892 9.13911e-14 9.13579e-14 -4.94384e-14 -69.7465 35.0453 6.48515 11.7452 -5.74197 -20.5435 0.551132 -23.168 3.40019 -1.24912e-09 -8.09209e-10 1.40476e-09 -2.18448e-09 -1.42434e-09 2.40232e-09 -1.24912e-09 -8.0921e-10 1.40477e-09 -7.73091 5.47488 -0.417314 -1.24912e-09 -8.09209e-10 1.40476e-09 -2.90554 0.965183 -0.102902 -1.24911e-09 -8.0921e-10 1.40476e-09 -10.2786 0.731801 -0.0259123 -1.24911e-09 -8.09206e-10 1.40475e-09 -2.22167 -0.733487 0.20892 -2.03217e-16 0.0 -3.88251e-19 3.97778 -21.365 -1.37082 -0.0720107 23.4672 0.297044 1.70532 -14.8738 6.84699 2.03217e-16 0.0 3.88251e-19 7.13547 -21.5846 6.45854 0.10361 25.1567 -0.412432 0.954166 -13.4937 1.75464
13.6703 82.3747 -189.629 -4.8034 -1.6585 16.1472 6.71959 -19.1826 4.88829 -2.44486 -0.439949 1.10424 -19.7443 44.2669 -16.8264 63.9146 -38.6659 -22.1033 -0.0 0.0 0.0 -0.0 0.0 0.0 1.1312e-13 8.82604e-14 -5.68027e-14 84.4604 37.0756 0.625233 -10.8578 -4.67719 19.4194 -1.20556 29.5463 4.56927 1.22007e-09 8.25564e-10 -1.38487e-09 2.0739e-09 1.46983e-09 -2.41926e-09 1.22009e-09 8.25571e-10 -1.38489e-09 7.73091 5.47488 0.417314 1.22007e-09 8.25563e-10 -1.38486e-09 2.90554 0.965183 0.102902 1.22008e-09 8.25573e-10 -1.38487e-09 10.2786 0.731801 0.0259123 1.22007e-09 8.25575e-10 -1.38487e-09 2.22167 -0.733487 -0.20892 1.13154e-13 8.82612e-14 -5.68524e-14 -86.4614 42.6001 8.8194 13.7749 -6.77353 -25.1018 1.08793 -28.2222 4.32578 -1.44844e-09 -1.02385e-09 1.39583e-09 -2.52861e-09 -1.79518e-09 2.38255e-09 -1.44844e-09 -1.02385e-09 1.39584e-09 -7.73091 5.47488 -0.417314 -1.44844e-09 -1.02385e-09 1.39584e-09 -2.90554 0.965183 -0.102902 -1.44843e-09 -1.02385e-09 1.39583e-09 -10.2786 0.731801 -0.0259123 -1.44843e-09 -1.02385e-09 1.39583e-09 -2.22167 -0.733487 0.20892 -2.03217e-16 0.0 -3.88251e-19 4.56383 -25.0585 -1.6066 -0.120991 28.0425 0.37931 2.70399 -18.4673 8.39112 2.03217e-16 0.0 3.88251e-19 9.34674 -25.7347 8.12225 0.19321 30.9616 -0.548825 1.21698 -17.2483 2.21212
